[Header]
FileType HTR
DataType HTRS
FileVersion 1
NumSegments 22
NumFrames 6
DataFrameRate 24
EulerRotationOrder ZYX
CalibrationUnits mm
RotationUnits Degrees
GlobalAxisofGravity Y
BoneLengthAxis Y
ScaleFactor 1.0
[SegmentNames&Hierarchy]
reference	GLOBAL
Hips	reference
Spine	Hips
Spine1	Spine
Neck	Spine1
Head	Neck
LeftShoulder	Spine1
LeftArm	LeftShoulder
LeftForeArm	LeftArm
LeftHand	LeftForeArm
RightShoulder	Spine1
RightArm	RightShoulder
RightForeArm	RightArm
RightHand	RightForeArm
LeftUpLeg	Hips
LeftLeg	LeftUpLeg
LeftFoot	LeftLeg
LeftToeBase	LeftFoot
RightUpLeg	Hips
RightLeg	RightUpLeg
RightFoot	RightLeg
RightToeBase	RightFoot
[BasePosition]
reference	0	0	0	0	0	0	1
Hips	0	0	0	0	0	0	1
Spine	0	0	0	-0	-90	0	1
Spine1	0	0	0	0	0	0	1
Neck	0	0	0	82.64767223	-82.64767223	-90	1
Head	0	0	0	-0	-90	0	1
LeftShoulder	0	0	0	0	0	0	1
LeftArm	0	0	0	0	0	0	1
LeftForeArm	0	0	0	0	0	0	1
LeftHand	0	0	0	0	0	0	1
RightShoulder	0	0	0	0	-0	180	1
RightArm	0	0	0	0	-0	180	1
RightForeArm	0	0	0	0	-0	180	1
RightHand	0	0	0	0	-0	180	1
LeftUpLeg	0	0	0	-0	90	0	1
LeftLeg	0	0	0	-0	90	0	1
LeftFoot	0	0	0	-23.42853957	23.42853957	-90	1
LeftToeBase	0	0	0	0	-0	-90	1
RightUpLeg	0	0	0	-0	90	0	1
RightLeg	0	0	0	-0	90	0	1
RightFoot	0	0	0	-23.42853957	23.42853957	-90	1
RightToeBase	0	0	0	0	-0	-90	1
[reference]
10	0	0	0	0	-0	0	1.0
11	0	0	0	0	-0	0	1.0
12	0	0	0	0	-0	0	1.0
13	0	0	0	0	-0	0	1.0
14	0	0	0	0	-0	0	1.0
15	0	0	0	0	-0	0	1.0
[Hips]
10	5.427771091	1.966447592	8.231581688	5.663029671	-0.5189682841	-101.7719727	1.0
11	5.489694595	2.126559973	8.336847305	5.390192986	-0.8601840734	-100.572319	1.0
12	5.619268417	2.371309042	8.567142487	5.855706215	0.2473315597	-100.6010971	1.0
13	5.677360535	2.47375989	8.67043972	6.020151138	1.011213422	-101.0791855	1.0
14	5.747271538	2.584948063	8.786085129	5.793356895	2.211111784	-102.6480713	1.0
15	5.813052654	2.731612921	8.855540276	4.61625433	4.151159286	-105.5853882	1.0
[Spine]
10	0	0	0.7457100153	-95.99707031	92.11952209	-88.95037842	1.0
11	0	0	0.7457100153	-63.83809662	91.81086731	-57.47872162	1.0
12	0	0	0.7457100153	-29.7783432	92.20352936	-24.15872574	1.0
13	0	0	0.7457100153	-20.59638977	92.3035202	-15.29649353	1.0
14	0	0	0.7457100153	-17.87182808	92.23867798	-13.3324995	1.0
15	0	0	0.7457100153	-55.18505096	91.3147583	-52.26712036	1.0
[Spine1]
10	0	0	2.140589952	3.916638136	5.087634087	0.8717980385	1.0
11	0	0	2.140589952	3.491410255	3.927661896	0.6597667933	1.0
12	0	0	2.140589952	2.838872194	0.3713105321	0.3309140503	1.0
13	0	0	2.140589952	2.60528183	-1.338925123	0.2068186551	1.0
14	0	0	2.140589952	2.333353043	-3.324950457	0.1475316882	1.0
15	0	0	2.140589952	1.385277748	-4.958271503	0.1972426325	1.0
[Neck]
10	0	0	2.32246995	103.7679062	82.99206543	119.3428574	1.0
11	0	0	2.32246995	106.0608826	82.80410767	121.3385315	1.0
12	0	0	2.32246995	102.4682388	83.10406494	117.0163651	1.0
13	0	0	2.32246995	99.33157349	82.73379517	113.6983109	1.0
14	0	0	2.32246995	96.18915558	81.61682129	110.66922	1.0
15	0	0	2.32246995	93.74531555	79.05113983	108.6483536	1.0
[Head]
10	0	-0.1818799973	1.409579992	-96.47340393	88.91365051	-92.04990387	1.0
11	0	-0.1818799973	1.409579992	-76.4806366	88.69532776	-71.73164368	1.0
12	0	-0.1818799973	1.409579992	-30.55007172	91.46889496	-22.36170959	1.0
13	0	-0.1818799973	1.409579992	-15.6834259	92.17729187	-6.477981567	1.0
14	0	-0.1818799973	1.409579992	-28.33751488	91.37650299	-19.215271	1.0
15	0	-0.1818799973	1.409579992	-30.60044861	89.51347351	-24.24482727	1.0
[LeftShoulder]
10	0.3668199778	0.02662999928	1.946700096	-16.5853653	2.681545734	-11.61830616	1.0
11	0.3668199778	0.02662999928	1.946700096	-16.84665298	2.378302097	-11.85237694	1.0
12	0.3668199778	0.02662999928	1.946700096	-17.63350296	1.721918344	-12.24780178	1.0
13	0.3668199778	0.02662999928	1.946700096	-17.62761307	1.641988158	-12.69000244	1.0
14	0.3668199778	0.02662999928	1.946700096	-16.94325256	1.810481548	-13.56764793	1.0
15	0.3668199778	0.02662999928	1.946700096	-15.45227623	2.735037327	-13.98283958	1.0
[LeftArm]
10	1.140689969	0	0	73.65755463	69.50337219	28.66983795	1.0
11	1.140689969	0	0	74.52763367	69.6156311	29.19490242	1.0
12	1.140689969	0	0	78.35644531	69.24420166	32.43890762	1.0
13	1.140689969	0	0	79.3364563	68.97375488	33.26924515	1.0
14	1.140689969	0	0	78.57112122	68.50253296	32.71240234	1.0
15	1.140689969	0	0	75.46837616	67.34761047	29.57743835	1.0
[LeftForeArm]
10	2.749800205	0	0	24.20664024	-14.49200535	-131.5889435	1.0
11	2.749800205	0	0	24.65073776	-14.49627209	-131.6919708	1.0
12	2.749800205	0	0	25.30686188	-14.81707096	-132.2215271	1.0
13	2.749800205	0	0	26.36404991	-15.09049416	-132.4215698	1.0
14	2.749800205	0	0	26.58052826	-15.24236774	-132.7194519	1.0
15	2.749800205	0	0	26.80510139	-15.30512428	-132.9723206	1.0
[LeftHand]
10	2.295179844	0	0	-6.33648777	-5.336578369	-22.01484489	1.0
11	2.295179844	0	0	-5.843411446	-6.06197834	-21.7821312	1.0
12	2.295179844	0	0	-6.266324043	-5.812112331	-22.32972336	1.0
13	2.295179844	0	0	-5.946839809	-5.815778255	-22.02506447	1.0
14	2.295179844	0	0	-6.051027775	-6.949542522	-22.11324501	1.0
15	2.295179844	0	0	-5.982554436	-7.806956291	-22.1361866	1.0
[RightShoulder]
10	-0.3601199985	0.02662999928	1.946700096	-7.145314217	4.399046421	-175.6473694	1.0
11	-0.3601199985	0.02662999928	1.946700096	-7.226741791	4.384625912	-175.8522034	1.0
12	-0.3601199985	0.02662999928	1.946700096	-8.275360107	4.490470409	-176.8368378	1.0
13	-0.3601199985	0.02662999928	1.946700096	-8.424945831	4.465939045	-176.9136353	1.0
14	-0.3601199985	0.02662999928	1.946700096	-7.743984699	4.159632683	-176.4233093	1.0
15	-0.3601199985	0.02662999928	1.946700096	-6.385939121	2.900756836	-175.6650085	1.0
[RightArm]
10	-1.140689969	0	0	-118.7411346	-102.4798279	-2.497390509	1.0
11	-1.140689969	0	0	-120.4648972	-103.1461639	-0.7707328796	1.0
12	-1.140689969	0	0	-121.5767288	-103.9681473	1.300654054	1.0
13	-1.140689969	0	0	-122.4797974	-104.3317947	2.673141479	1.0
14	-1.140689969	0	0	-124.3606262	-104.8657837	5.099323273	1.0
15	-1.140689969	0	0	-125.7273865	-105.9479523	7.331467628	1.0
[RightForeArm]
10	-2.749800205	0	0	51.45352173	26.33612251	-50.91362	1.0
11	-2.749800205	0	0	50.99775696	25.82876587	-50.85559845	1.0
12	-2.749800205	0	0	48.42444229	24.45902824	-51.71731186	1.0
13	-2.749800205	0	0	47.75357056	24.19124985	-52.06936646	1.0
14	-2.749800205	0	0	48.02441406	24.44874763	-51.90010071	1.0
15	-2.749800205	0	0	48.71094131	24.9913559	-51.23225403	1.0
[RightHand]
10	-2.295179844	0	0	2.459062576	19.07710838	-160.2707062	1.0
11	-2.295179844	0	0	2.87954092	19.27178001	-160.3260193	1.0
12	-2.295179844	0	0	3.578259706	18.93954468	-160.1408691	1.0
13	-2.295179844	0	0	3.786219835	18.99375916	-159.850235	1.0
14	-2.295179844	0	0	3.352204323	18.53706551	-159.845993	1.0
15	-2.295179844	0	0	2.349131346	18.39357948	-160.1289063	1.0
[LeftUpLeg]
10	0.9094099998	0	0	18.01787949	-106.8469543	-28.72972107	1.0
11	0.9094099998	0	0	39.65456009	-108.0249329	-53.0977478	1.0
12	0.9094099998	0	0	48.81110382	-107.7896423	-63.88598251	1.0
13	0.9094099998	0	0	51.38725281	-107.0048904	-66.54055023	1.0
14	0.9094099998	0	0	52.94511414	-104.2835999	-66.25900269	1.0
15	0.9094099998	0	0	53.21561813	-99.47240448	-61.88172913	1.0
[LeftLeg]
10	0	0	-4.498080254	-26.86050034	-82.19595337	49.84015274	1.0
11	0	0	-4.498080254	20.84021568	-84.72753143	7.598583221	1.0
12	0	0	-4.498080254	46.42915344	-78.81201172	-14.06927204	1.0
13	0	0	-4.498080254	50.05646133	-76.93291473	-17.25362968	1.0
14	0	0	-4.498080254	47.51539612	-77.05809021	-17.85061836	1.0
15	0	0	-4.498080254	29.13054466	-81.02996826	-6.771555901	1.0
[LeftFoot]
10	0	0	-3.729400158	-50.05827332	-4.07868433	108.3033829	1.0
11	0	0	-3.729400158	-50.76961136	-3.681550026	107.4028168	1.0
12	0	0	-3.729400158	-46.29607773	3.999310493	100.4689407	1.0
13	0	0	-3.729400158	-43.76416779	8.198764801	95.97989655	1.0
14	0	0	-3.729400158	-38.33374786	11.58137321	90.41156006	1.0
15	0	0	-3.729400158	-33.23628235	5.289432526	92.33763123	1.0
[LeftToeBase]
10	0	-1.364109993	-0.5911099911	-9.999999975e-007	0	0	1.0
11	0	-1.364109993	-0.5911099911	-9.999999975e-007	0	0	1.0
12	0	-1.364109993	-0.5911099911	-9.999999975e-007	0	0	1.0
13	0	-1.364109993	-0.5911099911	-9.999999975e-007	0	0	1.0
14	0	-1.364109993	-0.5911099911	-9.999999975e-007	0	0	1.0
15	0	-1.364109993	-0.5911099911	-9.999999975e-007	0	0	1.0
[RightUpLeg]
10	-0.9094099998	0	0	78.34643555	-65.62379456	-93.46002197	1.0
11	-0.9094099998	0	0	81.75887299	-65.67343903	-94.60861206	1.0
12	-0.9094099998	0	0	86.55645752	-61.5500946	-97.92275238	1.0
13	-0.9094099998	0	0	88.05200195	-60.05706787	-99.45096588	1.0
14	-0.9094099998	0	0	87.83935547	-60.87502289	-100.659462	1.0
15	-0.9094099998	0	0	85.60103607	-66.60084534	-100.040657	1.0
[RightLeg]
10	0	0	-4.498080254	37.76419067	-83.41319275	-7.922208786	1.0
11	0	0	-4.498080254	52.40149689	-82.45178223	-26.81476402	1.0
12	0	0	-4.498080254	56.71103287	-82.86273193	-35.86514664	1.0
13	0	0	-4.498080254	51.96434021	-84.01937866	-31.70733261	1.0
14	0	0	-4.498080254	54.33073044	-84.46606445	-31.54333878	1.0
15	0	0	-4.498080254	51.83543015	-87.16311646	-24.41632462	1.0
[RightFoot]
10	0	0	-3.729400158	-51.51602936	-33.73309708	96.92654419	1.0
11	0	0	-3.729400158	-48.50457001	-32.52737808	97.26812744	1.0
12	0	0	-3.729400158	-40.07056808	-31.60107422	104.4060822	1.0
13	0	0	-3.729400158	-35.78977966	-33.55842972	107.1154327	1.0
14	0	0	-3.729400158	-30.68066597	-41.78110504	111.6520004	1.0
15	0	0	-3.729400158	-29.54634857	-50.33576965	115.3178253	1.0
[RightToeBase]
10	0	-1.364109993	-0.5911099911	0	-9.999999975e-007	-9.999999975e-007	1.0
11	0	-1.364109993	-0.5911099911	0	-9.999999975e-007	-9.999999975e-007	1.0
12	0	-1.364109993	-0.5911099911	0	-9.999999975e-007	-9.999999975e-007	1.0
13	0	-1.364109993	-0.5911099911	0	-9.999999975e-007	-9.999999975e-007	1.0
14	0	-1.364109993	-0.5911099911	0	-9.999999975e-007	-9.999999975e-007	1.0
15	0	-1.364109993	-0.5911099911	0	-9.999999975e-007	-9.999999975e-007	1.0
[EndOfFile]
